<?xml version="1.0" encoding="UTF-8"?>
<svg id="Layer_1" data-name="Layer 1" xmlns="http://www.w3.org/2000/svg" viewBox="0 0 200 200">
  <defs>
    <style>
      .cls-1 {
        fill: #231f20;
      }
    </style>
  </defs>
  <path class="cls-1" d="M42.42,195.65c-.45-17.24-.35-34.5.32-51.73s1.91-34.45,3.7-51.6c.5-4.74,1.04-9.47,1.62-14.2.3-2.45.61-4.89.94-7.33.03-.24.07-.49.1-.73.11-.84-.1.7.02-.14.08-.57.15-1.14.23-1.71.18-1.3.36-2.6.55-3.9.2-1.39.23-2.59-.5-3.85-.61-1.04-1.8-2.03-2.99-2.3-2.36-.54-5.76.72-6.15,3.49-2.48,17.44-4.44,34.95-5.79,52.51-1.33,17.36-2.09,34.77-2.27,52.18-.1,9.77-.02,19.55.24,29.32.07,2.61,2.25,5.12,5,5s5.07-2.2,5-5h0Z"/>
  <path class="cls-1" d="M34.18,83.15c3.2-5.09,6.59-10.05,10.2-14.85.41-.55.82-1.09,1.24-1.63.17-.22.33-.43.5-.65-.72.94.12-.15.22-.28.92-1.18,1.86-2.36,2.81-3.52,1.9-2.33,3.84-4.62,5.84-6.86,7.83-8.84,16.37-17.05,25.51-24.53,1.11-.91,2.23-1.81,3.35-2.69.27-.21.54-.42.81-.63.21-.16.95-.73.12-.1.65-.5,1.3-.99,1.96-1.49,2.4-1.8,4.84-3.56,7.31-5.26,4.83-3.33,9.8-6.47,14.89-9.39.59-.34,1.18-.68,1.78-1.01,1.94-1.09-.44.71-2.38-.45-.91-.54-.41-.36-.22-.1,1.15,1.53,2.85,2.88,4.2,4.25,2.45,2.48,4.9,4.96,7.34,7.43,5.07,5.13,10.14,10.27,15.21,15.4,11.37,11.5,22.73,23.01,34.1,34.51,1.84,1.86,5.25,1.98,7.07,0s1.96-5.08,0-7.07c-10.49-10.62-20.98-21.24-31.48-31.86-5.13-5.19-10.26-10.38-15.39-15.57-2.68-2.71-5.36-5.43-8.04-8.14-1.17-1.18-2.33-2.36-3.5-3.54-1.41-1.43-2.78-3.12-4.56-4.1-4.05-2.24-8.25,1.04-11.67,3.07-2.7,1.6-5.37,3.26-7.99,4.98-5.27,3.45-10.37,7.14-15.35,11-9.66,7.49-18.7,15.77-26.99,24.74-9.51,10.28-18.08,21.46-25.52,33.32-1.39,2.22-.54,5.61,1.79,6.84,2.46,1.3,5.35.57,6.84-1.79h0Z"/>
  <path class="cls-1" d="M61.06,73.45c17.94,1.05,35.89,2.11,53.87,2.25,4.47.04,8.94.02,13.41-.07,2.23-.05,4.47-.11,6.7-.19,1.08-.04,2.15-.08,3.23-.13.42-.02.84-.05,1.26-.05.34,0,.76.24.19-.02-.9-.41-1.55-.58-2.11-1.49.21.33-.7-1.4-.49-1.3.04.02.02.74.02.7,0,.5,0,1,0,1.5,0,1.17-.01,2.33-.02,3.5-.01,2.25-.03,4.5-.04,6.74-.03,4.5-.05,8.99-.08,13.49-.05,9.07-.11,18.15-.16,27.22,0,1.08-.01,2.16-.02,3.25,0,.5,0,1,0,1.5s-.26,2.37.17.8c.26-.96.65-1.34,1.48-1.81.56-.32.25-.1.02-.06.15-.03,1.22-.03.37-.07s-1.73-.11-2.61-.22c-4.4-.56-8.8-1.06-13.21-1.5-17.65-1.74-35.4-2.45-53.13-2.11-1.07.02-2.13.04-3.2.07-.08,0-1.37-.09-1.45.02.05-.06.96.27.45.07-.41-.12-.25,0,.5.35.76.3,1.25.87,1.47,1.72,0,.04.02,1.02.06.47.01-.17,0-.36,0-.53,0-.45.04-.9.07-1.35.06-1.24.13-2.49.19-3.73.23-4.48.47-8.96.7-13.43.47-8.96.94-17.91,1.4-26.87.12-2.24.23-4.48.35-6.72.14-2.62-2.4-5.12-5-5-2.83.13-4.85,2.2-5,5-.5,9.62-1.01,19.24-1.51,28.86-.25,4.73-.49,9.45-.74,14.18-.13,2.4-.25,4.81-.38,7.21-.15,2.83-.09,5.65,2.11,7.77s5.15,2.03,8,1.96c2.3-.05,4.6-.09,6.9-.11,4.76-.04,9.52,0,14.28.11,9.44.22,18.87.74,28.28,1.55,4.74.41,9.48.89,14.21,1.45s10.32,2.15,13.66-2.17c1.82-2.35,1.56-5.34,1.57-8.15.01-2.33.03-4.66.04-6.99.03-4.83.06-9.66.09-14.49.06-9.57.11-19.15.17-28.72.01-2.43.32-5.09-.27-7.47-.84-3.37-4.02-5.17-7.31-5.18-4.72,0-9.45.36-14.17.42-19.05.25-38.09-.71-57.1-1.81-2.4-.14-4.8-.28-7.19-.42-2.62-.15-5.12,2.41-5,5,.13,2.84,2.2,4.84,5,5h0Z"/>
  <path class="cls-1" d="M104.26,73.12c-.71,9-1.65,17.99-2.81,26.94-.07.56-.15,1.12-.22,1.67.13-1.01-.05.37-.08.58-.15,1.11-.31,2.22-.47,3.33-.32,2.21-.65,4.42-.99,6.62-.68,4.37-1.42,8.73-2.2,13.07-.46,2.56.7,5.51,3.49,6.15,2.44.56,5.65-.74,6.15-3.49,3.29-18.16,5.67-36.48,7.13-54.88.21-2.61-2.45-5.11-5-5-2.89.13-4.78,2.2-5,5h0Z"/>
  <path class="cls-1" d="M99.93,138.4c2.62,0,5.12-2.3,5-5s-2.2-5-5-5c-2.62,0-5.12,2.3-5,5s2.2,5,5,5h0Z"/>
  <path class="cls-1" d="M69.76,105.37c1-.19,2.01-.36,3.02-.52.25-.04.51-.07.76-.11.93-.14-.02,0-.18.02.57-.1,1.17-.15,1.75-.21,2.18-.24,4.36-.42,6.55-.55,4.58-.27,9.16-.35,13.74-.4,9.91-.1,19.83-.08,29.71-.96,6.22-.55,12.43-1.43,18.54-2.74,2.56-.55,4.29-3.68,3.49-6.15-.87-2.7-3.41-4.08-6.15-3.49s-5.29,1.05-7.96,1.46c-.32.05-.64.1-.96.14-.13.02-1.13.16-.53.08s-.4.05-.53.07c-.32.04-.63.08-.95.12-1.34.16-2.68.3-4.02.43-5.06.48-10.15.72-15.23.85-9.45.24-18.92.03-28.36.55-5.15.28-10.3.82-15.37,1.77-2.58.48-4.28,3.73-3.49,6.15.89,2.75,3.39,4.01,6.15,3.49h0Z"/>
  <path class="cls-1" d="M49.86,188.23c29.35,2.34,58.69,4.67,88.04,7.01l24.87,1.98c2.61.21,5.11-2.45,5-5-.13-2.89-2.2-4.78-5-5-29.35-2.34-58.69-4.67-88.04-7.01-8.29-.66-16.58-1.32-24.87-1.98-2.61-.21-5.11,2.45-5,5,.13,2.89,2.2,4.78,5,5h0Z"/>
  <path class="cls-1" d="M157.79,78.32c.24,1.59.47,3.18.69,4.77-.15-1.08.06.5.08.58.04.32.08.64.12.96.12.96.24,1.91.35,2.87.39,3.35.72,6.71.99,10.07.54,6.73.85,13.47.92,20.22.14,13.34-.64,26.68-2.33,39.91-.04.32-.08.64-.12.96-.08.6-.08.64-.01.1-.04.32-.09.64-.13.95-.12.88-.25,1.75-.38,2.62-.27,1.83-.56,3.65-.87,5.47-.64,3.8-1.36,7.59-2.15,11.37-.54,2.55.75,5.53,3.49,6.15,2.51.57,5.58-.75,6.15-3.49,5.66-27.01,7.62-54.81,5.59-82.35-.59-7.98-1.52-15.93-2.73-23.83-.4-2.59-3.79-4.26-6.15-3.49-2.83.91-3.92,3.37-3.49,6.15h0Z"/>
</svg>