<?xml version="1.0" encoding="UTF-8"?>
<svg xmlns="http://www.w3.org/2000/svg" viewBox="0 0 200 200">
  <defs>
    <style>
      .cls-1 {
        fill: #231f20;
      }
    </style>
  </defs>
  <g id="Layer_3" data-name="Layer 3">
    <path class="cls-1" d="M79.2,44.94c.29,5.92-.84,11.51-2.99,17.01s-4.38,10.91-6.82,16.23c-1.04,2.27-2.21,4.52-3.91,6.38-2.02,2.21-3.61,5.72-.82,8.07,1.26,1.06,2.82,1,4.37,1.01s3.06.04,4.59.1c3.06.12,6.11.33,9.16.64,6.78.69,13.49,1.92,20.09,3.58,3.9.98,5.57-5.04,1.66-6.03-11.35-2.86-23.06-4.41-34.77-4.55-.56,0-1.41-.2-1.93,0h-.35c.62.78,1.24,1.56,1.87,2.35l-.08.14c.08-.15.16-.3.26-.45.3-.47-.21.23.13-.18.22-.26.46-.49.68-.75.54-.63,1.05-1.29,1.54-1.96,1.46-2.03,2.54-4.3,3.52-6.58,2.31-5.34,4.62-10.71,6.76-16.13,2.38-6.03,3.61-12.39,3.3-18.88-.08-1.69-1.38-3.12-3.12-3.12-1.63,0-3.21,1.43-3.12,3.12h0Z"/>
    <path class="cls-1" d="M28.72,38.2c1.04-1.89,2.08-3.81,3.4-5.53-.32.42.07-.08.11-.13.16-.19.32-.38.49-.57.37-.41.77-.81,1.18-1.18.06-.05.64-.55.33-.3s.3-.21.37-.25c.46-.31.95-.61,1.46-.84s2.16-.65,2.83-.75c.92-.15,2.37-.21,3.49-.26,2.71-.12,5.42-.22,8.12-.33,1.36-.06,2.72-.11,4.08-.17.46-.02.92-.03,1.37-.02.22,0,.44.04.66.04.4-.02-.52-.18.13.03.02,0,.99.2.43.11-.46-.08.25.32-.06-.03-.08-.09-.49-.68-.28-.28s-.09-.23-.11-.34,0-.86-.02-.38.25-.41-.01.02c-.3.48.22-.46-.03.05-.19.18-.15.17.12-.04l-.28.18c-.26.12-.62.24-.91.29.38-.06-.45.03-.52.04-.28.01-.55.02-.83.02-1.28,0-2.57-.07-3.84-.14-2.47-.12-4.95-.28-7.42-.33-5.91-.12-11.74.54-17.12,3.1-1.83.87-2.31,3.49-1.35,5.13,1.09,1.87,3.3,2.22,5.13,1.35.94-.45,2.19-.89,3.49-1.22.61-.16,1.23-.29,1.86-.41.94-.17.85-.16,1.74-.25,2.87-.29,5.77-.24,8.65-.12s5.63.35,8.45.39c3.08.04,6.39-.59,8.47-3.06,2.32-2.75,2.58-6.73-.03-9.4-2.04-2.09-5.18-2.31-7.93-2.2-3.12.12-6.24.26-9.36.38s-6.29.14-9.33.89c-6.59,1.62-10.34,7.14-13.41,12.74-.97,1.78-.44,4.09,1.35,5.13s4.15.44,5.13-1.35h0Z"/>
    <path class="cls-1" d="M101.54,24.37c-.79,3.35-.72,7.4,2.62,9.38,1.53.91,3.32.96,5.05,1.02s3.28.06,4.93.05c3.24-.02,6.47-.12,9.71-.1,1.5,0,2.99.04,4.49.12s3.51.26,4.45.41c2.83.46,6.03,1.25,8.25,2.29,1.81.84,3.47,2,5.58,1.38,3.15-.93,3.64-4.4,2.3-6.97-2.93-5.65-10.04-6.16-15.58-6.94-8.34-1.18-16.68-2.36-25.02-3.54-1.93-.27-4.12.47-4.61,2.62-.4,1.77.54,4.32,2.62,4.61,7.36,1.04,14.72,2.08,22.07,3.13,3.18.45,6.42.74,9.55,1.45.67.15,1.34.33,1.99.55.09.03.93.37.49.18s.37.19.45.24c.28.15.56.33.82.51-.67-.45.12.15.21.22.54.43-.16-.44.21.22l.17.27c.37.77.35.33-.07-1.32l.96-1.65-.22.17,1.65-.96-.28.05h1.99c-.41-.09-.41-.06-.01.09-.25-.13-.5-.27-.75-.39-.37-.19-.75-.37-1.14-.54-1.05-.47-2.13-.92-3.22-1.3-1.7-.59-3.44-1.03-5.21-1.36-3.94-.73-7.94-.97-11.94-1s-7.76.12-11.64.1c-.86,0-1.71-.01-2.57-.04-.57-.01-1.13-.05-1.7-.06-.41-.04-.48-.04-.23,0,.25.05.18.03-.21-.06.4.25.61.37.85.79.1.28.1.24,0-.1.04.5.05.52.02.07.02-.33.01-.65.04-.98-.09.9.12-.43.16-.6.45-1.91-.6-4.15-2.62-4.61s-4.13.58-4.61,2.62h0Z"/>
    <path class="cls-1" d="M45.49,31.59c3.22-.09,6.43-.31,9.63-.68,1.03-.12,1.89-.34,2.65-1.1.65-.65,1.14-1.72,1.1-2.65s-.36-1.98-1.1-2.65c-.68-.63-1.69-1.21-2.65-1.1-3.2.37-6.41.59-9.63.68-.98.03-1.95.4-2.65,1.1-.65.65-1.14,1.72-1.1,2.65.09,1.99,1.65,3.81,3.75,3.75h0Z"/>
  </g>
  <g id="Layer_2" data-name="Layer 2">
    <path class="cls-1" d="M18.24,60.64c-.58,9.04-1.16,18.07-1.75,27.11s-1.62,18.37-.14,27.47c1.31,8.1,5.14,15.68,9.6,22.47,4.78,7.27,10.26,14.15,15.9,20.78s10.88,12.82,17.84,17.4c7.38,4.86,16.33,6.25,25,6.55,17.38.59,34.57-3.87,50.28-11.07s28.81-16.62,41.55-27.23c1.54-1.28,3.07-2.58,4.58-3.9,1.98-1.72,1.89-5.33,0-7.07-2.11-1.94-4.95-1.83-7.07,0-2.98,2.58-5.99,5.1-9.07,7.56-.76.6-1.51,1.2-2.28,1.79s.35-.26-.4.31c-.47.36-.95.72-1.42,1.08-1.54,1.16-3.1,2.3-4.67,3.42-6.46,4.6-13.2,8.82-20.25,12.47-1.71.89-3.45,1.74-5.19,2.56-.9.42-1.8.83-2.71,1.22-.42.18-.84.36-1.26.54.81-.35.08-.04-.07.03-.28.12-.56.23-.85.35-3.75,1.52-7.57,2.85-11.45,3.99s-7.81,2.05-11.78,2.75c-.97.17-1.95.31-2.93.46-.59.1.12-.01.2-.02-.23.03-.45.06-.68.09-.6.08-1.21.14-1.81.21-1.96.21-3.93.36-5.9.44-4.08.17-8.18.09-12.24-.33-.45-.05-.89-.1-1.34-.15-.59-.06.14.02.22.03-.22-.03-.44-.07-.66-.1-1.03-.16-2.06-.35-3.07-.58-1.95-.44-3.89-1.01-5.73-1.79.79.33-.16-.09-.43-.22-.45-.22-.9-.45-1.34-.69-.81-.44-1.59-.92-2.36-1.43-.41-.27-.82-.56-1.22-.85-.17-.13-.34-.25-.51-.38.06.04.61.49.17.13-.76-.64-1.53-1.27-2.27-1.93-2.88-2.6-5.49-5.48-8.06-8.38-2.8-3.14-5.51-6.36-8.15-9.64-.65-.8-1.29-1.61-1.93-2.42-.29-.37-.59-.75-.88-1.13.49.63,0-.01-.09-.12-.19-.25-.39-.5-.58-.76-1.19-1.56-2.36-3.13-3.5-4.72-2.27-3.16-4.44-6.42-6.32-9.83-.9-1.63-1.73-3.3-2.49-5-.03-.07-.31-.73-.08-.19.24.58-.1-.26-.15-.39-.16-.4-.31-.8-.46-1.2-.34-.94-.66-1.88-.93-2.84-.26-.89-.49-1.79-.69-2.7-.09-.42-.18-.84-.26-1.26-.04-.24-.09-.47-.13-.71-.02-.09-.17-1.04-.09-.52.09.6-.05-.4-.06-.53-.03-.24-.05-.48-.07-.72-.05-.48-.08-.96-.12-1.44-.07-1.12-.11-2.24-.13-3.36-.05-4.28.28-8.55.56-12.82.57-8.79,1.13-17.58,1.7-26.37l.41-6.41c.17-2.62-2.42-5.12-5-5-2.85.13-4.82,2.2-5,5h0Z"/>
    <path class="cls-1" d="M65.31,120.68c12.02,8.27,28.27,8.63,41.95,5,4.14-1.1,8.15-2.6,12.04-4.38.93-.43,1.14-1.75.67-2.57-.54-.95-1.65-1.09-2.57-.67-15.33,7.02-35.58,9.44-50.21-.62-1.99-1.37-3.87,1.88-1.89,3.24h0Z"/>
    <path class="cls-1" d="M58.25,57.14c3.92,0,7.68-3.45,7.5-7.5s-3.3-7.5-7.5-7.5c-3.92,0-7.68,3.45-7.5,7.5s3.3,7.5,7.5,7.5h0Z"/>
    <path class="cls-1" d="M125.39,59.23c3.92,0,7.68-3.45,7.5-7.5s-3.3-7.5-7.5-7.5c-3.92,0-7.68,3.45-7.5,7.5s3.3,7.5,7.5,7.5h0Z"/>
  </g>
</svg>