<?xml version="1.0" encoding="UTF-8"?>
<svg xmlns="http://www.w3.org/2000/svg" viewBox="0 0 200 200">
  <defs>
    <style>
      .cls-1 {
        fill: #231f20;
      }
    </style>
  </defs>
  <g id="Layer_1" data-name="Layer 1">
    <path class="cls-1" d="M5.51,45.51c2.76,25.5,4.67,51.09,5.73,76.72.3,7.28.53,14.55.7,21.83.06,2.61,2.26,5.12,5,5s5.06-2.2,5-5c-.58-25.64-2.01-51.27-4.28-76.82-.65-7.25-1.36-14.5-2.15-21.74-.28-2.59-2.1-5.13-5-5-2.47.11-5.3,2.22-5,5h0Z"/>
    <path class="cls-1" d="M15.71,46.63c.04-2.81-.65-5.58-1.3-8.3-.29-1.2-1.25-2.37-2.3-2.99-.57-.37-1.19-.56-1.86-.59-.66-.15-1.33-.12-1.99.09-1.21.39-2.38,1.14-2.99,2.3-.64,1.21-.83,2.5-.5,3.85.36,1.52.75,3.03.96,4.57l-.18-1.33c.11.8.16,1.59.15,2.4-.02,1.27.57,2.64,1.46,3.54.45.49.99.83,1.61,1.03.6.31,1.24.46,1.93.43,1.29-.06,2.63-.48,3.54-1.46s1.44-2.17,1.46-3.54h0Z"/>
    <path class="cls-1" d="M13.97,42.02c.69-1.61,1.08-3.1.88-4.85-.07-.65-.17-1.3-.27-1.95-.09-.56.19-.26.05.42.02-.1.01-.75-.04-.84l-.1.83c-.25.85-.77,1.53-1.56,2.03-1.38.79-1.87.42-.76.42.42,0,.83,0,1.25,0,.83,0,1.66,0,2.5,0,1.83,0,3.66,0,5.49,0,6.83,0,13.65,0,20.48.01,13.82,0,27.64.02,41.45.02,1.47,0,2.92.02,4.39.1.77.04-1.05-.35.2.06.33.11.7.23,1.03.3.74.16-.97-.53.16.06.37.2.75.38,1.12.59,2.99,1.65,5.91,3.43,8.86,5.15,5.89,3.43,11.79,6.86,17.68,10.29,2.95,1.71,5.93,3.42,9.2,4.45s6.9,1.22,10.35,1.4c6.74.35,13.49.46,20.24.43,3.79-.01,7.57-.07,11.36-.15,1.7-.03,3.4-.12,5.1-.06.24,0,.48.02.72.04.24.02.48.04.72.06-.68-.1-.82-.12-.44-.06.63.12,1.24.26,1.86.45,1.06.32-.85-.59.04.03l.29.17c.44.3.37.24-.21-.2-.03.01.94.85.3.23-.25-.35-.24-.32.04.1.26.5.26.47.01-.1.09.26.17.52.24.78.04.14.33,1.66.21.96-.13-.79.06.54.06.57.05.49.11.98.16,1.47.42,3.92.84,7.85,1.26,11.77.28,2.59,2.1,5.13,5,5,2.47-.11,5.3-2.21,5-5-.39-3.6-.77-7.19-1.16-10.79-.43-4.03-.59-8.11-3.36-11.34-4.45-5.18-12.24-4.14-18.3-4.03-7.08.12-14.16.16-21.24-.03-3.56-.09-7.14-.21-10.69-.47-.75-.06-1.51-.12-2.26-.22,1.16.16-.32-.08-.46-.11-.3-.06-.59-.12-.88-.19-.73-.17-1.44-.39-2.14-.65-.13-.05-1.45-.63-.45-.17-.47-.22-.94-.44-1.4-.68-6.27-3.2-12.27-7.05-18.36-10.59-3.02-1.76-6.04-3.51-9.06-5.27-3.41-1.98-6.59-3.83-10.6-4.24-3.49-.35-7.09-.12-10.6-.12s-6.99,0-10.49,0c-7.24,0-14.48,0-21.73-.01-8.07,0-16.15,0-24.22-.01-2,0-4,0-5.99,0-2.37,0-4.88-.24-7.04.94s-3.31,3.64-3.3,6.05c0,.99.2,1.99.37,2.96.12.69-.03-1.3-.05-.25.01.2.02.4,0,.6,0-.52.13-.99.41-1.42-.55,1.29-.89,2.44-.5,3.85.32,1.16,1.22,2.42,2.3,2.99,2.15,1.13,5.74.77,6.84-1.79h0Z"/>
  </g>
  <g id="Layer_4" data-name="Layer 4">
    <path class="cls-1" d="M32.59,157.87c3.69-12.05,7.39-24.12,11.91-35.89.55-1.43,1.11-2.86,1.69-4.28.29-.71.58-1.42.87-2.13.12-.28.24-.57.35-.85-.4.96.33-.76.4-.92,1.22-2.81,2.5-5.6,3.84-8.35s2.79-5.56,4.33-8.26c.32-.56.65-1.12,1.01-1.66l.11-.16c.33-.45.3-.42-.08.09,0-.08.42-.47.51-.57l.27-.27c.42-.36.38-.34-.13.06.02-.11.58-.35.7-.42-.88.54.15-.05.41-.13.42-.12.85-.22,1.27-.3.73-.14,1.48-.24,2.22-.34-.85.11,0,0,.14-.01.49-.06.98-.12,1.47-.18,1.71-.21,3.43-.39,5.14-.56,3.35-.33,6.71-.58,10.07-.78,6.73-.4,13.47-.58,20.21-.68,13.53-.2,27.06-.24,40.59-.34s26.88-.25,40.3.48c1.65.09,3.29.19,4.93.31.58.04,1.55-.09,2.07.16l-.63-.09c.23.04.46.09.68.16.03.13-1.4-1-1.45-1.08-.38-.57-.3-1-.37-1.62-.08-.74-.07.1-.12.35-.22,1.1.36-.61.03-.02-.14.26-.27.53-.41.79-.83,1.53-1.71,3.03-2.56,4.55-3.33,5.92-6.67,11.83-10,17.75-6.63,11.76-13.25,23.52-19.88,35.29-1.51,2.68-2.92,5.46-4.76,7.94.11-.15.63-.73.02-.05-.27.31-.54.62-.82.91-.19.2-.39.39-.59.57,0,0-1.03.86-.4.37s-.4.26-.43.29c-.27.18-.54.34-.82.5s-.56.31-.84.45c-.23.11-1.22.75-.21.12-1.01.63-2.56.86-3.72,1.11-.64.14-1.29.24-1.94.36-1.27.23.76-.08-.05.01-.46.05-.92.11-1.38.15-2.96.3-5.95.43-8.92.61-13.52.8-26.93.59-40.45-.14-13.38-.72-26.79-1.6-40.19-.93-3.26.16-6.52.42-9.76.79-2.59.29-5.13,2.09-5,5,.11,2.46,2.22,5.31,5,5,27.92-3.14,55.95,1.9,83.93.62,6.6-.3,13.34-.44,19.87-1.54,3.02-.51,6.03-1.45,8.7-2.98,3.05-1.74,5.4-4.29,7.35-7.19,1.77-2.63,3.22-5.47,4.78-8.23,1.75-3.1,3.5-6.21,5.24-9.31,3.46-6.13,6.91-12.27,10.37-18.4s6.99-12.41,10.49-18.62c1.71-3.03,3.42-6.06,5.12-9.09,1.89-3.35,3.31-7.1,1.18-10.74-2.28-3.89-7.21-3.71-11.12-3.96-3.54-.23-7.08-.39-10.62-.5-6.92-.22-13.85-.26-20.77-.23-14.12.05-28.24.2-42.35.31s-28.13.27-42.11,1.74c-3.55.37-7.3.58-10.76,1.47-3.75.96-6.48,3.38-8.51,6.59-3.44,5.42-6.12,11.48-8.68,17.35-5.33,12.24-9.59,24.89-13.56,37.63-.96,3.08-1.91,6.17-2.85,9.26-.77,2.5.91,5.56,3.49,6.15s5.33-.81,6.15-3.49h0Z"/>
  </g>
</svg>